<mxfile host="app.diagrams.net" modified="2023-05-07T02:30:45.150Z" agent="Mozilla/5.0 (Windows NT 10.0; Win64; x64) AppleWebKit/537.36 (KHTML, like Gecko) Chrome/112.0.0.0 Safari/537.36" version="21.2.9" etag="HV__U3Q2wnlG6W0_SRsf" type="github">
  <diagram name="Page-1" id="TxNuhFTUbiAu2M3mhQ8x">
    <mxGraphModel>
      <root>
        <mxCell id="0" />
        <mxCell id="1" parent="0" />
      </root>
    </mxGraphModel>
  </diagram>
</mxfile>
